<?xml version="1.0" encoding="utf-8"?>
<svg xmlns="http://www.w3.org/2000/svg" xmlns:xlink="http://www.w3.org/1999/xlink" width="672" height="480" viewBox="0 0 2688 1920">
<defs>
  <clipPath id="clip660">
    <rect x="0" y="0" width="2688" height="1920"/>
  </clipPath>
</defs>
<path clip-path="url(#clip660)" d="M0 1920 L2688 1920 L2688 -4.26326e-14 L0 -4.26326e-14  Z" fill="#ffffff" fill-rule="evenodd" fill-opacity="1"/>
<defs>
  <clipPath id="clip661">
    <rect x="268" y="127" width="2373" height="1607"/>
  </clipPath>
</defs>
<path clip-path="url(#clip660)" d="M268.826 1734.12 L2640.76 1734.12 L2640.76 127.792 L268.826 127.792  Z" fill="#ffffff" fill-rule="evenodd" fill-opacity="1"/>
<polyline clip-path="url(#clip660)" style="stroke:#000000; stroke-linecap:round; stroke-linejoin:round; stroke-width:4; stroke-opacity:1; fill:none" points="268.826,1734.12 2640.76,1734.12 "/>
<polyline clip-path="url(#clip660)" style="stroke:#000000; stroke-linecap:round; stroke-linejoin:round; stroke-width:4; stroke-opacity:1; fill:none" points="335.956,1734.12 335.956,1715.22 "/>
<polyline clip-path="url(#clip660)" style="stroke:#000000; stroke-linecap:round; stroke-linejoin:round; stroke-width:4; stroke-opacity:1; fill:none" points="895.373,1734.12 895.373,1715.22 "/>
<polyline clip-path="url(#clip660)" style="stroke:#000000; stroke-linecap:round; stroke-linejoin:round; stroke-width:4; stroke-opacity:1; fill:none" points="1454.79,1734.12 1454.79,1715.22 "/>
<polyline clip-path="url(#clip660)" style="stroke:#000000; stroke-linecap:round; stroke-linejoin:round; stroke-width:4; stroke-opacity:1; fill:none" points="2014.21,1734.12 2014.21,1715.22 "/>
<polyline clip-path="url(#clip660)" style="stroke:#000000; stroke-linecap:round; stroke-linejoin:round; stroke-width:4; stroke-opacity:1; fill:none" points="2573.63,1734.12 2573.63,1715.22 "/>
<path clip-path="url(#clip660)" d="M335.956 1767.34 Q332.345 1767.34 330.516 1770.9 Q328.71 1774.45 328.71 1781.58 Q328.71 1788.68 330.516 1792.25 Q332.345 1795.79 335.956 1795.79 Q339.59 1795.79 341.395 1792.25 Q343.224 1788.68 343.224 1781.58 Q343.224 1774.45 341.395 1770.9 Q339.59 1767.34 335.956 1767.34 M335.956 1763.64 Q341.766 1763.64 344.821 1768.24 Q347.9 1772.83 347.9 1781.58 Q347.9 1790.3 344.821 1794.91 Q341.766 1799.49 335.956 1799.49 Q330.145 1799.49 327.067 1794.91 Q324.011 1790.3 324.011 1781.58 Q324.011 1772.83 327.067 1768.24 Q330.145 1763.64 335.956 1763.64 Z" fill="#000000" fill-rule="nonzero" fill-opacity="1" /><path clip-path="url(#clip660)" d="M870.061 1794.89 L877.7 1794.89 L877.7 1768.52 L869.39 1770.19 L869.39 1765.93 L877.653 1764.26 L882.329 1764.26 L882.329 1794.89 L889.968 1794.89 L889.968 1798.82 L870.061 1798.82 L870.061 1794.89 Z" fill="#000000" fill-rule="nonzero" fill-opacity="1" /><path clip-path="url(#clip660)" d="M909.412 1767.34 Q905.801 1767.34 903.973 1770.9 Q902.167 1774.45 902.167 1781.58 Q902.167 1788.68 903.973 1792.25 Q905.801 1795.79 909.412 1795.79 Q913.047 1795.79 914.852 1792.25 Q916.681 1788.68 916.681 1781.58 Q916.681 1774.45 914.852 1770.9 Q913.047 1767.34 909.412 1767.34 M909.412 1763.64 Q915.223 1763.64 918.278 1768.24 Q921.357 1772.83 921.357 1781.58 Q921.357 1790.3 918.278 1794.91 Q915.223 1799.49 909.412 1799.49 Q903.602 1799.49 900.524 1794.91 Q897.468 1790.3 897.468 1781.58 Q897.468 1772.83 900.524 1768.24 Q903.602 1763.64 909.412 1763.64 Z" fill="#000000" fill-rule="nonzero" fill-opacity="1" /><path clip-path="url(#clip660)" d="M1433.56 1794.89 L1449.88 1794.89 L1449.88 1798.82 L1427.94 1798.82 L1427.94 1794.89 Q1430.6 1792.13 1435.18 1787.5 Q1439.79 1782.85 1440.97 1781.51 Q1443.22 1778.98 1444.1 1777.25 Q1445 1775.49 1445 1773.8 Q1445 1771.04 1443.05 1769.31 Q1441.13 1767.57 1438.03 1767.57 Q1435.83 1767.57 1433.38 1768.34 Q1430.95 1769.1 1428.17 1770.65 L1428.17 1765.93 Q1430.99 1764.79 1433.45 1764.21 Q1435.9 1763.64 1437.94 1763.64 Q1443.31 1763.64 1446.5 1766.32 Q1449.7 1769.01 1449.7 1773.5 Q1449.7 1775.63 1448.89 1777.55 Q1448.1 1779.45 1445.99 1782.04 Q1445.42 1782.71 1442.31 1785.93 Q1439.21 1789.12 1433.56 1794.89 Z" fill="#000000" fill-rule="nonzero" fill-opacity="1" /><path clip-path="url(#clip660)" d="M1469.7 1767.34 Q1466.09 1767.34 1464.26 1770.9 Q1462.45 1774.45 1462.45 1781.58 Q1462.45 1788.68 1464.26 1792.25 Q1466.09 1795.79 1469.7 1795.79 Q1473.33 1795.79 1475.14 1792.25 Q1476.97 1788.68 1476.97 1781.58 Q1476.97 1774.45 1475.14 1770.9 Q1473.33 1767.34 1469.7 1767.34 M1469.7 1763.64 Q1475.51 1763.64 1478.56 1768.24 Q1481.64 1772.83 1481.64 1781.58 Q1481.64 1790.3 1478.56 1794.91 Q1475.51 1799.49 1469.7 1799.49 Q1463.89 1799.49 1460.81 1794.91 Q1457.75 1790.3 1457.75 1781.58 Q1457.75 1772.83 1460.81 1768.24 Q1463.89 1763.64 1469.7 1763.64 Z" fill="#000000" fill-rule="nonzero" fill-opacity="1" /><path clip-path="url(#clip660)" d="M2003.05 1780.19 Q2006.41 1780.9 2008.28 1783.17 Q2010.18 1785.44 2010.18 1788.77 Q2010.18 1793.89 2006.66 1796.69 Q2003.14 1799.49 1996.66 1799.49 Q1994.49 1799.49 1992.17 1799.05 Q1989.88 1798.64 1987.43 1797.78 L1987.43 1793.27 Q1989.37 1794.4 1991.69 1794.98 Q1994 1795.56 1996.52 1795.56 Q2000.92 1795.56 2003.21 1793.82 Q2005.53 1792.08 2005.53 1788.77 Q2005.53 1785.72 2003.37 1784.01 Q2001.25 1782.27 1997.43 1782.27 L1993.4 1782.27 L1993.4 1778.43 L1997.61 1778.43 Q2001.06 1778.43 2002.89 1777.06 Q2004.72 1775.67 2004.72 1773.08 Q2004.72 1770.42 2002.82 1769.01 Q2000.94 1767.57 1997.43 1767.57 Q1995.5 1767.57 1993.31 1767.99 Q1991.11 1768.4 1988.47 1769.28 L1988.47 1765.12 Q1991.13 1764.38 1993.44 1764.01 Q1995.78 1763.64 1997.84 1763.64 Q2003.17 1763.64 2006.27 1766.07 Q2009.37 1768.47 2009.37 1772.59 Q2009.37 1775.46 2007.73 1777.46 Q2006.08 1779.42 2003.05 1780.19 Z" fill="#000000" fill-rule="nonzero" fill-opacity="1" /><path clip-path="url(#clip660)" d="M2029.05 1767.34 Q2025.44 1767.34 2023.61 1770.9 Q2021.8 1774.45 2021.8 1781.58 Q2021.8 1788.68 2023.61 1792.25 Q2025.44 1795.79 2029.05 1795.79 Q2032.68 1795.79 2034.49 1792.25 Q2036.31 1788.68 2036.31 1781.58 Q2036.31 1774.45 2034.49 1770.9 Q2032.68 1767.34 2029.05 1767.34 M2029.05 1763.64 Q2034.86 1763.64 2037.91 1768.24 Q2040.99 1772.83 2040.99 1781.58 Q2040.99 1790.3 2037.91 1794.91 Q2034.86 1799.49 2029.05 1799.49 Q2023.24 1799.49 2020.16 1794.91 Q2017.1 1790.3 2017.1 1781.58 Q2017.1 1772.83 2020.16 1768.24 Q2023.24 1763.64 2029.05 1763.64 Z" fill="#000000" fill-rule="nonzero" fill-opacity="1" /><path clip-path="url(#clip660)" d="M2561.8 1768.34 L2549.99 1786.78 L2561.8 1786.78 L2561.8 1768.34 M2560.57 1764.26 L2566.45 1764.26 L2566.45 1786.78 L2571.38 1786.78 L2571.38 1790.67 L2566.45 1790.67 L2566.45 1798.82 L2561.8 1798.82 L2561.8 1790.67 L2546.2 1790.67 L2546.2 1786.16 L2560.57 1764.26 Z" fill="#000000" fill-rule="nonzero" fill-opacity="1" /><path clip-path="url(#clip660)" d="M2589.11 1767.34 Q2585.5 1767.34 2583.67 1770.9 Q2581.87 1774.45 2581.87 1781.58 Q2581.87 1788.68 2583.67 1792.25 Q2585.5 1795.79 2589.11 1795.79 Q2592.75 1795.79 2594.55 1792.25 Q2596.38 1788.68 2596.38 1781.58 Q2596.38 1774.45 2594.55 1770.9 Q2592.75 1767.34 2589.11 1767.34 M2589.11 1763.64 Q2594.92 1763.64 2597.98 1768.24 Q2601.06 1772.83 2601.06 1781.58 Q2601.06 1790.3 2597.98 1794.91 Q2594.92 1799.49 2589.11 1799.49 Q2583.3 1799.49 2580.22 1794.91 Q2577.17 1790.3 2577.17 1781.58 Q2577.17 1772.83 2580.22 1768.24 Q2583.3 1763.64 2589.11 1763.64 Z" fill="#000000" fill-rule="nonzero" fill-opacity="1" /><path clip-path="url(#clip660)" d="M1393.95 1837.53 L1393.95 1847.65 L1406.01 1847.65 L1406.01 1852.2 L1393.95 1852.2 L1393.95 1871.56 Q1393.95 1875.92 1395.13 1877.16 Q1396.34 1878.4 1400 1878.4 L1406.01 1878.4 L1406.01 1883.3 L1400 1883.3 Q1393.22 1883.3 1390.64 1880.79 Q1388.06 1878.24 1388.06 1871.56 L1388.06 1852.2 L1383.77 1852.2 L1383.77 1847.65 L1388.06 1847.65 L1388.06 1837.53 L1393.95 1837.53 Z" fill="#000000" fill-rule="nonzero" fill-opacity="1" /><path clip-path="url(#clip660)" d="M1413.72 1847.65 L1419.57 1847.65 L1419.57 1883.3 L1413.72 1883.3 L1413.72 1847.65 M1413.72 1833.78 L1419.57 1833.78 L1419.57 1841.19 L1413.72 1841.19 L1413.72 1833.78 Z" fill="#000000" fill-rule="nonzero" fill-opacity="1" /><path clip-path="url(#clip660)" d="M1459.58 1854.5 Q1461.78 1850.55 1464.83 1848.67 Q1467.89 1846.79 1472.03 1846.79 Q1477.6 1846.79 1480.62 1850.71 Q1483.64 1854.59 1483.64 1861.78 L1483.64 1883.3 L1477.75 1883.3 L1477.75 1861.98 Q1477.75 1856.85 1475.94 1854.37 Q1474.13 1851.89 1470.4 1851.89 Q1465.85 1851.89 1463.21 1854.91 Q1460.57 1857.93 1460.57 1863.15 L1460.57 1883.3 L1454.68 1883.3 L1454.68 1861.98 Q1454.68 1856.82 1452.87 1854.37 Q1451.05 1851.89 1447.26 1851.89 Q1442.78 1851.89 1440.13 1854.94 Q1437.49 1857.97 1437.49 1863.15 L1437.49 1883.3 L1431.6 1883.3 L1431.6 1847.65 L1437.49 1847.65 L1437.49 1853.19 Q1439.5 1849.91 1442.3 1848.35 Q1445.1 1846.79 1448.95 1846.79 Q1452.83 1846.79 1455.54 1848.77 Q1458.28 1850.74 1459.58 1854.5 Z" fill="#000000" fill-rule="nonzero" fill-opacity="1" /><path clip-path="url(#clip660)" d="M1525.82 1864.01 L1525.82 1866.88 L1498.89 1866.88 Q1499.27 1872.92 1502.52 1876.11 Q1505.8 1879.26 1511.62 1879.26 Q1514.99 1879.26 1518.15 1878.43 Q1521.33 1877.6 1524.45 1875.95 L1524.45 1881.49 Q1521.3 1882.82 1517.99 1883.52 Q1514.68 1884.22 1511.27 1884.22 Q1502.74 1884.22 1497.74 1879.26 Q1492.78 1874.29 1492.78 1865.83 Q1492.78 1857.07 1497.49 1851.95 Q1502.23 1846.79 1510.25 1846.79 Q1517.45 1846.79 1521.61 1851.44 Q1525.82 1856.06 1525.82 1864.01 M1519.96 1862.29 Q1519.9 1857.49 1517.25 1854.62 Q1514.64 1851.76 1510.32 1851.76 Q1505.41 1851.76 1502.45 1854.53 Q1499.53 1857.3 1499.08 1862.33 L1519.96 1862.29 Z" fill="#000000" fill-rule="nonzero" fill-opacity="1" /><polyline clip-path="url(#clip660)" style="stroke:#000000; stroke-linecap:round; stroke-linejoin:round; stroke-width:4; stroke-opacity:1; fill:none" points="268.826,1734.12 268.826,127.792 "/>
<polyline clip-path="url(#clip660)" style="stroke:#000000; stroke-linecap:round; stroke-linejoin:round; stroke-width:4; stroke-opacity:1; fill:none" points="268.826,1688.65 287.723,1688.65 "/>
<polyline clip-path="url(#clip660)" style="stroke:#000000; stroke-linecap:round; stroke-linejoin:round; stroke-width:4; stroke-opacity:1; fill:none" points="268.826,1305.98 287.723,1305.98 "/>
<polyline clip-path="url(#clip660)" style="stroke:#000000; stroke-linecap:round; stroke-linejoin:round; stroke-width:4; stroke-opacity:1; fill:none" points="268.826,923.301 287.723,923.301 "/>
<polyline clip-path="url(#clip660)" style="stroke:#000000; stroke-linecap:round; stroke-linejoin:round; stroke-width:4; stroke-opacity:1; fill:none" points="268.826,540.624 287.723,540.624 "/>
<polyline clip-path="url(#clip660)" style="stroke:#000000; stroke-linecap:round; stroke-linejoin:round; stroke-width:4; stroke-opacity:1; fill:none" points="268.826,157.947 287.723,157.947 "/>
<path clip-path="url(#clip660)" d="M216.561 1674.45 Q212.95 1674.45 211.121 1678.02 Q209.316 1681.56 209.316 1688.69 Q209.316 1695.8 211.121 1699.36 Q212.95 1702.9 216.561 1702.9 Q220.195 1702.9 222.001 1699.36 Q223.83 1695.8 223.83 1688.69 Q223.83 1681.56 222.001 1678.02 Q220.195 1674.45 216.561 1674.45 M216.561 1670.75 Q222.371 1670.75 225.427 1675.36 Q228.506 1679.94 228.506 1688.69 Q228.506 1697.42 225.427 1702.02 Q222.371 1706.61 216.561 1706.61 Q210.751 1706.61 207.672 1702.02 Q204.617 1697.42 204.617 1688.69 Q204.617 1679.94 207.672 1675.36 Q210.751 1670.75 216.561 1670.75 Z" fill="#000000" fill-rule="nonzero" fill-opacity="1" /><path clip-path="url(#clip660)" d="M150.265 1319.32 L166.585 1319.32 L166.585 1323.26 L144.64 1323.26 L144.64 1319.32 Q147.302 1316.57 151.886 1311.94 Q156.492 1307.29 157.673 1305.94 Q159.918 1303.42 160.798 1301.68 Q161.7 1299.92 161.7 1298.23 Q161.7 1295.48 159.756 1293.74 Q157.835 1292.01 154.733 1292.01 Q152.534 1292.01 150.08 1292.77 Q147.649 1293.54 144.872 1295.09 L144.872 1290.36 Q147.696 1289.23 150.149 1288.65 Q152.603 1288.07 154.64 1288.07 Q160.011 1288.07 163.205 1290.76 Q166.399 1293.44 166.399 1297.93 Q166.399 1300.06 165.589 1301.98 Q164.802 1303.88 162.696 1306.48 Q162.117 1307.15 159.015 1310.36 Q155.913 1313.56 150.265 1319.32 Z" fill="#000000" fill-rule="nonzero" fill-opacity="1" /><path clip-path="url(#clip660)" d="M176.446 1288.7 L194.802 1288.7 L194.802 1292.63 L180.728 1292.63 L180.728 1301.11 Q181.746 1300.76 182.765 1300.6 Q183.784 1300.41 184.802 1300.41 Q190.589 1300.41 193.969 1303.58 Q197.348 1306.75 197.348 1312.17 Q197.348 1317.75 193.876 1320.85 Q190.404 1323.93 184.084 1323.93 Q181.909 1323.93 179.64 1323.56 Q177.395 1323.19 174.987 1322.45 L174.987 1317.75 Q177.071 1318.88 179.293 1319.44 Q181.515 1319.99 183.992 1319.99 Q187.996 1319.99 190.334 1317.89 Q192.672 1315.78 192.672 1312.17 Q192.672 1308.56 190.334 1306.45 Q187.996 1304.35 183.992 1304.35 Q182.117 1304.35 180.242 1304.76 Q178.39 1305.18 176.446 1306.06 L176.446 1288.7 Z" fill="#000000" fill-rule="nonzero" fill-opacity="1" /><path clip-path="url(#clip660)" d="M216.561 1291.78 Q212.95 1291.78 211.121 1295.34 Q209.316 1298.88 209.316 1306.01 Q209.316 1313.12 211.121 1316.68 Q212.95 1320.23 216.561 1320.23 Q220.195 1320.23 222.001 1316.68 Q223.83 1313.12 223.83 1306.01 Q223.83 1298.88 222.001 1295.34 Q220.195 1291.78 216.561 1291.78 M216.561 1288.07 Q222.371 1288.07 225.427 1292.68 Q228.506 1297.26 228.506 1306.01 Q228.506 1314.74 225.427 1319.35 Q222.371 1323.93 216.561 1323.93 Q210.751 1323.93 207.672 1319.35 Q204.617 1314.74 204.617 1306.01 Q204.617 1297.26 207.672 1292.68 Q210.751 1288.07 216.561 1288.07 Z" fill="#000000" fill-rule="nonzero" fill-opacity="1" /><path clip-path="url(#clip660)" d="M146.284 906.021 L164.64 906.021 L164.64 909.956 L150.566 909.956 L150.566 918.428 Q151.585 918.081 152.603 917.919 Q153.622 917.734 154.64 917.734 Q160.427 917.734 163.807 920.905 Q167.186 924.076 167.186 929.493 Q167.186 935.072 163.714 938.174 Q160.242 941.252 153.923 941.252 Q151.747 941.252 149.478 940.882 Q147.233 940.512 144.825 939.771 L144.825 935.072 Q146.909 936.206 149.131 936.762 Q151.353 937.317 153.83 937.317 Q157.835 937.317 160.173 935.211 Q162.51 933.104 162.51 929.493 Q162.51 925.882 160.173 923.776 Q157.835 921.669 153.83 921.669 Q151.955 921.669 150.08 922.086 Q148.228 922.502 146.284 923.382 L146.284 906.021 Z" fill="#000000" fill-rule="nonzero" fill-opacity="1" /><path clip-path="url(#clip660)" d="M186.399 909.1 Q182.788 909.1 180.959 912.664 Q179.154 916.206 179.154 923.336 Q179.154 930.442 180.959 934.007 Q182.788 937.549 186.399 937.549 Q190.033 937.549 191.839 934.007 Q193.668 930.442 193.668 923.336 Q193.668 916.206 191.839 912.664 Q190.033 909.1 186.399 909.1 M186.399 905.396 Q192.209 905.396 195.265 910.002 Q198.344 914.586 198.344 923.336 Q198.344 932.063 195.265 936.669 Q192.209 941.252 186.399 941.252 Q180.589 941.252 177.51 936.669 Q174.455 932.063 174.455 923.336 Q174.455 914.586 177.51 910.002 Q180.589 905.396 186.399 905.396 Z" fill="#000000" fill-rule="nonzero" fill-opacity="1" /><path clip-path="url(#clip660)" d="M216.561 909.1 Q212.95 909.1 211.121 912.664 Q209.316 916.206 209.316 923.336 Q209.316 930.442 211.121 934.007 Q212.95 937.549 216.561 937.549 Q220.195 937.549 222.001 934.007 Q223.83 930.442 223.83 923.336 Q223.83 916.206 222.001 912.664 Q220.195 909.1 216.561 909.1 M216.561 905.396 Q222.371 905.396 225.427 910.002 Q228.506 914.586 228.506 923.336 Q228.506 932.063 225.427 936.669 Q222.371 941.252 216.561 941.252 Q210.751 941.252 207.672 936.669 Q204.617 932.063 204.617 923.336 Q204.617 914.586 207.672 910.002 Q210.751 905.396 216.561 905.396 Z" fill="#000000" fill-rule="nonzero" fill-opacity="1" /><path clip-path="url(#clip660)" d="M145.057 523.344 L167.279 523.344 L167.279 525.335 L154.733 557.904 L149.849 557.904 L161.654 527.279 L145.057 527.279 L145.057 523.344 Z" fill="#000000" fill-rule="nonzero" fill-opacity="1" /><path clip-path="url(#clip660)" d="M176.446 523.344 L194.802 523.344 L194.802 527.279 L180.728 527.279 L180.728 535.751 Q181.746 535.404 182.765 535.242 Q183.784 535.057 184.802 535.057 Q190.589 535.057 193.969 538.228 Q197.348 541.4 197.348 546.816 Q197.348 552.395 193.876 555.497 Q190.404 558.575 184.084 558.575 Q181.909 558.575 179.64 558.205 Q177.395 557.835 174.987 557.094 L174.987 552.395 Q177.071 553.529 179.293 554.085 Q181.515 554.64 183.992 554.64 Q187.996 554.64 190.334 552.534 Q192.672 550.427 192.672 546.816 Q192.672 543.205 190.334 541.099 Q187.996 538.992 183.992 538.992 Q182.117 538.992 180.242 539.409 Q178.39 539.825 176.446 540.705 L176.446 523.344 Z" fill="#000000" fill-rule="nonzero" fill-opacity="1" /><path clip-path="url(#clip660)" d="M216.561 526.423 Q212.95 526.423 211.121 529.988 Q209.316 533.529 209.316 540.659 Q209.316 547.765 211.121 551.33 Q212.95 554.872 216.561 554.872 Q220.195 554.872 222.001 551.33 Q223.83 547.765 223.83 540.659 Q223.83 533.529 222.001 529.988 Q220.195 526.423 216.561 526.423 M216.561 522.719 Q222.371 522.719 225.427 527.326 Q228.506 531.909 228.506 540.659 Q228.506 549.386 225.427 553.992 Q222.371 558.575 216.561 558.575 Q210.751 558.575 207.672 553.992 Q204.617 549.386 204.617 540.659 Q204.617 531.909 207.672 527.326 Q210.751 522.719 216.561 522.719 Z" fill="#000000" fill-rule="nonzero" fill-opacity="1" /><path clip-path="url(#clip660)" d="M116.886 171.292 L124.525 171.292 L124.525 144.926 L116.214 146.593 L116.214 142.334 L124.478 140.667 L129.154 140.667 L129.154 171.292 L136.793 171.292 L136.793 175.227 L116.886 175.227 L116.886 171.292 Z" fill="#000000" fill-rule="nonzero" fill-opacity="1" /><path clip-path="url(#clip660)" d="M156.237 143.746 Q152.626 143.746 150.798 147.311 Q148.992 150.852 148.992 157.982 Q148.992 165.088 150.798 168.653 Q152.626 172.195 156.237 172.195 Q159.872 172.195 161.677 168.653 Q163.506 165.088 163.506 157.982 Q163.506 150.852 161.677 147.311 Q159.872 143.746 156.237 143.746 M156.237 140.042 Q162.048 140.042 165.103 144.649 Q168.182 149.232 168.182 157.982 Q168.182 166.709 165.103 171.315 Q162.048 175.898 156.237 175.898 Q150.427 175.898 147.349 171.315 Q144.293 166.709 144.293 157.982 Q144.293 149.232 147.349 144.649 Q150.427 140.042 156.237 140.042 Z" fill="#000000" fill-rule="nonzero" fill-opacity="1" /><path clip-path="url(#clip660)" d="M186.399 143.746 Q182.788 143.746 180.959 147.311 Q179.154 150.852 179.154 157.982 Q179.154 165.088 180.959 168.653 Q182.788 172.195 186.399 172.195 Q190.033 172.195 191.839 168.653 Q193.668 165.088 193.668 157.982 Q193.668 150.852 191.839 147.311 Q190.033 143.746 186.399 143.746 M186.399 140.042 Q192.209 140.042 195.265 144.649 Q198.344 149.232 198.344 157.982 Q198.344 166.709 195.265 171.315 Q192.209 175.898 186.399 175.898 Q180.589 175.898 177.51 171.315 Q174.455 166.709 174.455 157.982 Q174.455 149.232 177.51 144.649 Q180.589 140.042 186.399 140.042 Z" fill="#000000" fill-rule="nonzero" fill-opacity="1" /><path clip-path="url(#clip660)" d="M216.561 143.746 Q212.95 143.746 211.121 147.311 Q209.316 150.852 209.316 157.982 Q209.316 165.088 211.121 168.653 Q212.95 172.195 216.561 172.195 Q220.195 172.195 222.001 168.653 Q223.83 165.088 223.83 157.982 Q223.83 150.852 222.001 147.311 Q220.195 143.746 216.561 143.746 M216.561 140.042 Q222.371 140.042 225.427 144.649 Q228.506 149.232 228.506 157.982 Q228.506 166.709 225.427 171.315 Q222.371 175.898 216.561 175.898 Q210.751 175.898 207.672 171.315 Q204.617 166.709 204.617 157.982 Q204.617 149.232 207.672 144.649 Q210.751 140.042 216.561 140.042 Z" fill="#000000" fill-rule="nonzero" fill-opacity="1" /><path clip-path="url(#clip660)" d="M56.2912 1092.77 L75.1974 1092.77 L75.1974 1098.66 L25.9905 1098.66 L25.9905 1092.77 L31.4013 1092.77 Q28.2185 1090.92 26.6907 1088.12 Q25.1311 1085.29 25.1311 1081.38 Q25.1311 1074.88 30.2873 1070.84 Q35.4436 1066.77 43.8463 1066.77 Q52.249 1066.77 57.4052 1070.84 Q62.5615 1074.88 62.5615 1081.38 Q62.5615 1085.29 61.0337 1088.12 Q59.4741 1090.92 56.2912 1092.77 M43.8463 1072.85 Q37.3851 1072.85 33.7248 1075.52 Q30.0327 1078.16 30.0327 1082.81 Q30.0327 1087.46 33.7248 1090.13 Q37.3851 1092.77 43.8463 1092.77 Q50.3075 1092.77 53.9996 1090.13 Q57.6599 1087.46 57.6599 1082.81 Q57.6599 1078.16 53.9996 1075.52 Q50.3075 1072.85 43.8463 1072.85 Z" fill="#000000" fill-rule="nonzero" fill-opacity="1" /><path clip-path="url(#clip660)" d="M30.0964 1043.25 Q30.0964 1047.96 33.7885 1050.69 Q37.4488 1053.43 43.8463 1053.43 Q50.2438 1053.43 53.9359 1050.73 Q57.5962 1047.99 57.5962 1043.25 Q57.5962 1038.57 53.9041 1035.83 Q50.212 1033.09 43.8463 1033.09 Q37.5124 1033.09 33.8203 1035.83 Q30.0964 1038.57 30.0964 1043.25 M25.1311 1043.25 Q25.1311 1035.61 30.0964 1031.25 Q35.0616 1026.89 43.8463 1026.89 Q52.5991 1026.89 57.5962 1031.25 Q62.5615 1035.61 62.5615 1043.25 Q62.5615 1050.92 57.5962 1055.28 Q52.5991 1059.61 43.8463 1059.61 Q35.0616 1059.61 30.0964 1055.28 Q25.1311 1050.92 25.1311 1043.25 Z" fill="#000000" fill-rule="nonzero" fill-opacity="1" /><path clip-path="url(#clip660)" d="M56.2912 1011.51 L75.1974 1011.51 L75.1974 1017.4 L25.9905 1017.4 L25.9905 1011.51 L31.4013 1011.51 Q28.2185 1009.67 26.6907 1006.87 Q25.1311 1004.03 25.1311 1000.12 Q25.1311 993.625 30.2873 989.583 Q35.4436 985.509 43.8463 985.509 Q52.249 985.509 57.4052 989.583 Q62.5615 993.625 62.5615 1000.12 Q62.5615 1004.03 61.0337 1006.87 Q59.4741 1009.67 56.2912 1011.51 M43.8463 991.588 Q37.3851 991.588 33.7248 994.262 Q30.0327 996.903 30.0327 1001.55 Q30.0327 1006.2 33.7248 1008.87 Q37.3851 1011.51 43.8463 1011.51 Q50.3075 1011.51 53.9996 1008.87 Q57.6599 1006.2 57.6599 1001.55 Q57.6599 996.903 53.9996 994.262 Q50.3075 991.588 43.8463 991.588 Z" fill="#000000" fill-rule="nonzero" fill-opacity="1" /><path clip-path="url(#clip660)" d="M47.5702 976.406 L25.9905 976.406 L25.9905 970.549 L47.3474 970.549 Q52.4082 970.549 54.9545 968.576 Q57.4689 966.603 57.4689 962.656 Q57.4689 957.913 54.4452 955.176 Q51.4215 952.407 46.2016 952.407 L25.9905 952.407 L25.9905 946.551 L61.6384 946.551 L61.6384 952.407 L56.1639 952.407 Q59.4104 954.539 61.0019 957.372 Q62.5615 960.173 62.5615 963.897 Q62.5615 970.04 58.742 973.223 Q54.9226 976.406 47.5702 976.406 M25.1311 961.669 L25.1311 961.669 Z" fill="#000000" fill-rule="nonzero" fill-opacity="1" /><path clip-path="url(#clip660)" d="M12.1132 934.488 L12.1132 928.631 L61.6384 928.631 L61.6384 934.488 L12.1132 934.488 Z" fill="#000000" fill-rule="nonzero" fill-opacity="1" /><path clip-path="url(#clip660)" d="M43.719 900.176 Q43.719 907.274 45.3422 910.011 Q46.9655 912.749 50.8804 912.749 Q53.9996 912.749 55.8457 910.712 Q57.6599 908.643 57.6599 905.11 Q57.6599 900.24 54.2224 897.312 Q50.7531 894.352 45.0239 894.352 L43.719 894.352 L43.719 900.176 M41.3 888.495 L61.6384 888.495 L61.6384 894.352 L56.2276 894.352 Q59.4741 896.357 61.0337 899.349 Q62.5615 902.341 62.5615 906.669 Q62.5615 912.144 59.5059 915.39 Q56.4186 918.605 51.2623 918.605 Q45.2467 918.605 42.1912 914.595 Q39.1357 910.552 39.1357 902.564 L39.1357 894.352 L38.5628 894.352 Q34.5205 894.352 32.3244 897.025 Q30.0964 899.667 30.0964 904.473 Q30.0964 907.529 30.8284 910.425 Q31.5605 913.322 33.0246 915.995 L27.6137 915.995 Q26.3724 912.78 25.7677 909.757 Q25.1311 906.733 25.1311 903.868 Q25.1311 896.134 29.1415 892.315 Q33.1519 888.495 41.3 888.495 Z" fill="#000000" fill-rule="nonzero" fill-opacity="1" /><path clip-path="url(#clip660)" d="M15.869 870.639 L25.9905 870.639 L25.9905 858.576 L30.542 858.576 L30.542 870.639 L49.8937 870.639 Q54.2542 870.639 55.4955 869.462 Q56.7368 868.252 56.7368 864.592 L56.7368 858.576 L61.6384 858.576 L61.6384 864.592 Q61.6384 871.372 59.124 873.95 Q56.5777 876.528 49.8937 876.528 L30.542 876.528 L30.542 880.825 L25.9905 880.825 L25.9905 876.528 L15.869 876.528 L15.869 870.639 Z" fill="#000000" fill-rule="nonzero" fill-opacity="1" /><path clip-path="url(#clip660)" d="M25.9905 850.874 L25.9905 845.018 L61.6384 845.018 L61.6384 850.874 L25.9905 850.874 M12.1132 850.874 L12.1132 845.018 L19.5293 845.018 L19.5293 850.874 L12.1132 850.874 Z" fill="#000000" fill-rule="nonzero" fill-opacity="1" /><path clip-path="url(#clip660)" d="M30.0964 818.95 Q30.0964 823.661 33.7885 826.398 Q37.4488 829.135 43.8463 829.135 Q50.2438 829.135 53.9359 826.43 Q57.5962 823.692 57.5962 818.95 Q57.5962 814.271 53.9041 811.534 Q50.212 808.797 43.8463 808.797 Q37.5124 808.797 33.8203 811.534 Q30.0964 814.271 30.0964 818.95 M25.1311 818.95 Q25.1311 811.311 30.0964 806.951 Q35.0616 802.59 43.8463 802.59 Q52.5991 802.59 57.5962 806.951 Q62.5615 811.311 62.5615 818.95 Q62.5615 826.621 57.5962 830.981 Q52.5991 835.31 43.8463 835.31 Q35.0616 835.31 30.0964 830.981 Q25.1311 826.621 25.1311 818.95 Z" fill="#000000" fill-rule="nonzero" fill-opacity="1" /><path clip-path="url(#clip660)" d="M40.1224 763.25 L61.6384 763.25 L61.6384 769.106 L40.3133 769.106 Q35.2526 769.106 32.7381 771.08 Q30.2237 773.053 30.2237 777 Q30.2237 781.742 33.2474 784.48 Q36.2711 787.217 41.491 787.217 L61.6384 787.217 L61.6384 793.105 L25.9905 793.105 L25.9905 787.217 L31.5287 787.217 Q28.314 785.116 26.7225 782.283 Q25.1311 779.419 25.1311 775.695 Q25.1311 769.552 28.9505 766.401 Q32.7381 763.25 40.1224 763.25 Z" fill="#000000" fill-rule="nonzero" fill-opacity="1" /><path clip-path="url(#clip660)" d="M529.929 18.8205 L529.929 65.8515 L539.813 65.8515 Q552.33 65.8515 558.123 60.1802 Q563.956 54.509 563.956 42.2752 Q563.956 30.1225 558.123 24.4918 Q552.33 18.8205 539.813 18.8205 L529.929 18.8205 M521.746 12.096 L538.557 12.096 Q556.138 12.096 564.361 19.4281 Q572.585 26.7198 572.585 42.2752 Q572.585 57.9117 564.321 65.2439 Q556.057 72.576 538.557 72.576 L521.746 72.576 L521.746 12.096 Z" fill="#000000" fill-rule="nonzero" fill-opacity="1" /><path clip-path="url(#clip660)" d="M585.305 27.2059 L592.758 27.2059 L592.758 72.576 L585.305 72.576 L585.305 27.2059 M585.305 9.54393 L592.758 9.54393 L592.758 18.9825 L585.305 18.9825 L585.305 9.54393 Z" fill="#000000" fill-rule="nonzero" fill-opacity="1" /><path clip-path="url(#clip660)" d="M637.278 28.5427 L637.278 35.5912 Q634.118 33.9709 630.715 33.1607 Q627.313 32.3505 623.667 32.3505 Q618.117 32.3505 615.322 34.0519 Q612.567 35.7533 612.567 39.156 Q612.567 41.7486 614.552 43.2475 Q616.537 44.7058 622.532 46.0426 L625.085 46.6097 Q633.024 48.3111 636.346 51.4303 Q639.708 54.509 639.708 60.0587 Q639.708 66.3781 634.685 70.0644 Q629.703 73.7508 620.953 73.7508 Q617.307 73.7508 613.337 73.0216 Q609.408 72.3329 605.033 70.9151 L605.033 63.2184 Q609.164 65.3654 613.175 66.4591 Q617.185 67.5124 621.115 67.5124 Q626.381 67.5124 629.216 65.73 Q632.052 63.9071 632.052 60.6258 Q632.052 57.5877 629.986 55.9673 Q627.961 54.3469 621.034 52.8481 L618.441 52.2405 Q611.514 50.7821 608.435 47.7845 Q605.357 44.7463 605.357 39.4801 Q605.357 33.0797 609.894 29.5959 Q614.431 26.1121 622.775 26.1121 Q626.907 26.1121 630.553 26.7198 Q634.199 27.3274 637.278 28.5427 Z" fill="#000000" fill-rule="nonzero" fill-opacity="1" /><path clip-path="url(#clip660)" d="M684.228 28.9478 L684.228 35.9153 Q681.068 34.1734 677.868 33.3227 Q674.708 32.4315 671.467 32.4315 Q664.216 32.4315 660.206 37.0496 Q656.195 41.6271 656.195 49.9314 Q656.195 58.2358 660.206 62.8538 Q664.216 67.4314 671.467 67.4314 Q674.708 67.4314 677.868 66.5807 Q681.068 65.6895 684.228 63.9476 L684.228 70.8341 Q681.109 72.2924 677.746 73.0216 Q674.425 73.7508 670.657 73.7508 Q660.408 73.7508 654.373 67.3098 Q648.337 60.8689 648.337 49.9314 Q648.337 38.832 654.413 32.472 Q660.53 26.1121 671.143 26.1121 Q674.587 26.1121 677.868 26.8413 Q681.149 27.5299 684.228 28.9478 Z" fill="#000000" fill-rule="nonzero" fill-opacity="1" /><path clip-path="url(#clip660)" d="M723.481 34.1734 Q722.225 33.4443 720.726 33.1202 Q719.268 32.7556 717.486 32.7556 Q711.166 32.7556 707.763 36.8875 Q704.401 40.9789 704.401 48.6757 L704.401 72.576 L696.907 72.576 L696.907 27.2059 L704.401 27.2059 L704.401 34.2544 Q706.751 30.1225 710.518 28.1376 Q714.285 26.1121 719.673 26.1121 Q720.443 26.1121 721.374 26.2337 Q722.306 26.3147 723.44 26.5172 L723.481 34.1734 Z" fill="#000000" fill-rule="nonzero" fill-opacity="1" /><path clip-path="url(#clip660)" d="M768.284 48.0275 L768.284 51.6733 L734.013 51.6733 Q734.499 59.3701 738.631 63.421 Q742.804 67.4314 750.217 67.4314 Q754.511 67.4314 758.521 66.3781 Q762.572 65.3249 766.542 63.2184 L766.542 70.267 Q762.532 71.9684 758.319 72.8596 Q754.106 73.7508 749.771 73.7508 Q738.915 73.7508 732.555 67.4314 Q726.236 61.1119 726.236 50.3365 Q726.236 39.1965 732.231 32.6746 Q738.267 26.1121 748.475 26.1121 Q757.63 26.1121 762.937 32.0264 Q768.284 37.9003 768.284 48.0275 M760.83 45.84 Q760.749 39.7232 757.387 36.0774 Q754.065 32.4315 748.556 32.4315 Q742.318 32.4315 738.55 35.9558 Q734.823 39.4801 734.256 45.8805 L760.83 45.84 Z" fill="#000000" fill-rule="nonzero" fill-opacity="1" /><path clip-path="url(#clip660)" d="M787.89 14.324 L787.89 27.2059 L803.243 27.2059 L803.243 32.9987 L787.89 32.9987 L787.89 57.6282 Q787.89 63.1779 789.389 64.7578 Q790.929 66.3376 795.587 66.3376 L803.243 66.3376 L803.243 72.576 L795.587 72.576 Q786.959 72.576 783.677 69.3758 Q780.396 66.1351 780.396 57.6282 L780.396 32.9987 L774.927 32.9987 L774.927 27.2059 L780.396 27.2059 L780.396 14.324 L787.89 14.324 Z" fill="#000000" fill-rule="nonzero" fill-opacity="1" /><path clip-path="url(#clip660)" d="M851.854 48.0275 L851.854 51.6733 L817.583 51.6733 Q818.07 59.3701 822.202 63.421 Q826.374 67.4314 833.787 67.4314 Q838.081 67.4314 842.091 66.3781 Q846.142 65.3249 850.112 63.2184 L850.112 70.267 Q846.102 71.9684 841.889 72.8596 Q837.676 73.7508 833.341 73.7508 Q822.485 73.7508 816.125 67.4314 Q809.806 61.1119 809.806 50.3365 Q809.806 39.1965 815.801 32.6746 Q821.837 26.1121 832.045 26.1121 Q841.2 26.1121 846.507 32.0264 Q851.854 37.9003 851.854 48.0275 M844.4 45.84 Q844.319 39.7232 840.957 36.0774 Q837.635 32.4315 832.126 32.4315 Q825.888 32.4315 822.12 35.9558 Q818.394 39.4801 817.827 45.8805 L844.4 45.84 Z" fill="#000000" fill-rule="nonzero" fill-opacity="1" /><path clip-path="url(#clip660)" d="M923.11 28.9478 L923.11 35.9153 Q919.95 34.1734 916.75 33.3227 Q913.59 32.4315 910.349 32.4315 Q903.098 32.4315 899.088 37.0496 Q895.077 41.6271 895.077 49.9314 Q895.077 58.2358 899.088 62.8538 Q903.098 67.4314 910.349 67.4314 Q913.59 67.4314 916.75 66.5807 Q919.95 65.6895 923.11 63.9476 L923.11 70.8341 Q919.99 72.2924 916.628 73.0216 Q913.306 73.7508 909.539 73.7508 Q899.29 73.7508 893.254 67.3098 Q887.219 60.8689 887.219 49.9314 Q887.219 38.832 893.295 32.472 Q899.412 26.1121 910.025 26.1121 Q913.468 26.1121 916.75 26.8413 Q920.031 27.5299 923.11 28.9478 Z" fill="#000000" fill-rule="nonzero" fill-opacity="1" /><path clip-path="url(#clip660)" d="M953.653 32.4315 Q947.658 32.4315 944.174 37.1306 Q940.69 41.7891 940.69 49.9314 Q940.69 58.0738 944.134 62.7728 Q947.617 67.4314 953.653 67.4314 Q959.608 67.4314 963.092 62.7323 Q966.576 58.0333 966.576 49.9314 Q966.576 41.8701 963.092 37.1711 Q959.608 32.4315 953.653 32.4315 M953.653 26.1121 Q963.376 26.1121 968.925 32.4315 Q974.475 38.7509 974.475 49.9314 Q974.475 61.0714 968.925 67.4314 Q963.376 73.7508 953.653 73.7508 Q943.891 73.7508 938.341 67.4314 Q932.832 61.0714 932.832 49.9314 Q932.832 38.7509 938.341 32.4315 Q943.891 26.1121 953.653 26.1121 Z" fill="#000000" fill-rule="nonzero" fill-opacity="1" /><path clip-path="url(#clip660)" d="M1022.15 35.9153 Q1024.95 30.8922 1028.84 28.5022 Q1032.73 26.1121 1037.99 26.1121 Q1045.08 26.1121 1048.93 31.0947 Q1052.78 36.0368 1052.78 45.1919 L1052.78 72.576 L1045.28 72.576 L1045.28 45.4349 Q1045.28 38.913 1042.98 35.7533 Q1040.67 32.5936 1035.93 32.5936 Q1030.13 32.5936 1026.77 36.4419 Q1023.41 40.2903 1023.41 46.9338 L1023.41 72.576 L1015.92 72.576 L1015.92 45.4349 Q1015.92 38.8725 1013.61 35.7533 Q1011.3 32.5936 1006.48 32.5936 Q1000.77 32.5936 997.403 36.4824 Q994.041 40.3308 994.041 46.9338 L994.041 72.576 L986.547 72.576 L986.547 27.2059 L994.041 27.2059 L994.041 34.2544 Q996.593 30.082 1000.16 28.0971 Q1003.72 26.1121 1008.62 26.1121 Q1013.57 26.1121 1017.01 28.6237 Q1020.49 31.1352 1022.15 35.9153 Z" fill="#000000" fill-rule="nonzero" fill-opacity="1" /><path clip-path="url(#clip660)" d="M1100.22 49.9314 Q1100.22 41.7081 1096.81 37.0496 Q1093.45 32.3505 1087.54 32.3505 Q1081.62 32.3505 1078.22 37.0496 Q1074.86 41.7081 1074.86 49.9314 Q1074.86 58.1548 1078.22 62.8538 Q1081.62 67.5124 1087.54 67.5124 Q1093.45 67.5124 1096.81 62.8538 Q1100.22 58.1548 1100.22 49.9314 M1074.86 34.0924 Q1077.21 30.0415 1080.77 28.0971 Q1084.38 26.1121 1089.36 26.1121 Q1097.62 26.1121 1102.77 32.6746 Q1107.95 39.2371 1107.95 49.9314 Q1107.95 60.6258 1102.77 67.1883 Q1097.62 73.7508 1089.36 73.7508 Q1084.38 73.7508 1080.77 71.8063 Q1077.21 69.8214 1074.86 65.7705 L1074.86 72.576 L1067.36 72.576 L1067.36 9.54393 L1074.86 9.54393 L1074.86 34.0924 Z" fill="#000000" fill-rule="nonzero" fill-opacity="1" /><path clip-path="url(#clip660)" d="M1120.31 27.2059 L1127.76 27.2059 L1127.76 72.576 L1120.31 72.576 L1120.31 27.2059 M1120.31 9.54393 L1127.76 9.54393 L1127.76 18.9825 L1120.31 18.9825 L1120.31 9.54393 Z" fill="#000000" fill-rule="nonzero" fill-opacity="1" /><path clip-path="url(#clip660)" d="M1181.07 45.1919 L1181.07 72.576 L1173.62 72.576 L1173.62 45.4349 Q1173.62 38.994 1171.11 35.7938 Q1168.59 32.5936 1163.57 32.5936 Q1157.54 32.5936 1154.05 36.4419 Q1150.57 40.2903 1150.57 46.9338 L1150.57 72.576 L1143.07 72.576 L1143.07 27.2059 L1150.57 27.2059 L1150.57 34.2544 Q1153.24 30.163 1156.85 28.1376 Q1160.49 26.1121 1165.23 26.1121 Q1173.05 26.1121 1177.06 30.9732 Q1181.07 35.7938 1181.07 45.1919 Z" fill="#000000" fill-rule="nonzero" fill-opacity="1" /><path clip-path="url(#clip660)" d="M1234.75 48.0275 L1234.75 51.6733 L1200.47 51.6733 Q1200.96 59.3701 1205.09 63.421 Q1209.27 67.4314 1216.68 67.4314 Q1220.97 67.4314 1224.98 66.3781 Q1229.03 65.3249 1233 63.2184 L1233 70.267 Q1228.99 71.9684 1224.78 72.8596 Q1220.57 73.7508 1216.23 73.7508 Q1205.38 73.7508 1199.02 67.4314 Q1192.7 61.1119 1192.7 50.3365 Q1192.7 39.1965 1198.69 32.6746 Q1204.73 26.1121 1214.94 26.1121 Q1224.09 26.1121 1229.4 32.0264 Q1234.75 37.9003 1234.75 48.0275 M1227.29 45.84 Q1227.21 39.7232 1223.85 36.0774 Q1220.53 32.4315 1215.02 32.4315 Q1208.78 32.4315 1205.01 35.9558 Q1201.29 39.4801 1200.72 45.8805 L1227.29 45.84 Z" fill="#000000" fill-rule="nonzero" fill-opacity="1" /><path clip-path="url(#clip660)" d="M1276.83 34.0924 L1276.83 9.54393 L1284.29 9.54393 L1284.29 72.576 L1276.83 72.576 L1276.83 65.7705 Q1274.48 69.8214 1270.88 71.8063 Q1267.31 73.7508 1262.29 73.7508 Q1254.07 73.7508 1248.88 67.1883 Q1243.74 60.6258 1243.74 49.9314 Q1243.74 39.2371 1248.88 32.6746 Q1254.07 26.1121 1262.29 26.1121 Q1267.31 26.1121 1270.88 28.0971 Q1274.48 30.0415 1276.83 34.0924 M1251.44 49.9314 Q1251.44 58.1548 1254.8 62.8538 Q1258.2 67.5124 1264.11 67.5124 Q1270.03 67.5124 1273.43 62.8538 Q1276.83 58.1548 1276.83 49.9314 Q1276.83 41.7081 1273.43 37.0496 Q1270.03 32.3505 1264.11 32.3505 Q1258.2 32.3505 1254.8 37.0496 Q1251.44 41.7081 1251.44 49.9314 Z" fill="#000000" fill-rule="nonzero" fill-opacity="1" /><path clip-path="url(#clip660)" d="M1326.01 9.54393 L1333.47 9.54393 L1333.47 72.576 L1326.01 72.576 L1326.01 9.54393 Z" fill="#000000" fill-rule="nonzero" fill-opacity="1" /><path clip-path="url(#clip660)" d="M1366.64 32.4315 Q1360.65 32.4315 1357.16 37.1306 Q1353.68 41.7891 1353.68 49.9314 Q1353.68 58.0738 1357.12 62.7728 Q1360.61 67.4314 1366.64 67.4314 Q1372.6 67.4314 1376.08 62.7323 Q1379.57 58.0333 1379.57 49.9314 Q1379.57 41.8701 1376.08 37.1711 Q1372.6 32.4315 1366.64 32.4315 M1366.64 26.1121 Q1376.37 26.1121 1381.91 32.4315 Q1387.46 38.7509 1387.46 49.9314 Q1387.46 61.0714 1381.91 67.4314 Q1376.37 73.7508 1366.64 73.7508 Q1356.88 73.7508 1351.33 67.4314 Q1345.82 61.0714 1345.82 49.9314 Q1345.82 38.7509 1351.33 32.4315 Q1356.88 26.1121 1366.64 26.1121 Z" fill="#000000" fill-rule="nonzero" fill-opacity="1" /><path clip-path="url(#clip660)" d="M1432.47 28.9478 L1432.47 35.9153 Q1429.31 34.1734 1426.11 33.3227 Q1422.95 32.4315 1419.71 32.4315 Q1412.46 32.4315 1408.45 37.0496 Q1404.44 41.6271 1404.44 49.9314 Q1404.44 58.2358 1408.45 62.8538 Q1412.46 67.4314 1419.71 67.4314 Q1422.95 67.4314 1426.11 66.5807 Q1429.31 65.6895 1432.47 63.9476 L1432.47 70.8341 Q1429.35 72.2924 1425.99 73.0216 Q1422.67 73.7508 1418.9 73.7508 Q1408.65 73.7508 1402.62 67.3098 Q1396.58 60.8689 1396.58 49.9314 Q1396.58 38.832 1402.66 32.472 Q1408.77 26.1121 1419.39 26.1121 Q1422.83 26.1121 1426.11 26.8413 Q1429.39 27.5299 1432.47 28.9478 Z" fill="#000000" fill-rule="nonzero" fill-opacity="1" /><path clip-path="url(#clip660)" d="M1445.15 9.54393 L1452.64 9.54393 L1452.64 46.7717 L1474.88 27.2059 L1484.4 27.2059 L1460.34 48.4326 L1485.42 72.576 L1475.69 72.576 L1452.64 50.4176 L1452.64 72.576 L1445.15 72.576 L1445.15 9.54393 Z" fill="#000000" fill-rule="nonzero" fill-opacity="1" /><path clip-path="url(#clip660)" d="M1523.33 34.0924 L1523.33 9.54393 L1530.79 9.54393 L1530.79 72.576 L1523.33 72.576 L1523.33 65.7705 Q1520.98 69.8214 1517.38 71.8063 Q1513.81 73.7508 1508.79 73.7508 Q1500.57 73.7508 1495.38 67.1883 Q1490.24 60.6258 1490.24 49.9314 Q1490.24 39.2371 1495.38 32.6746 Q1500.57 26.1121 1508.79 26.1121 Q1513.81 26.1121 1517.38 28.0971 Q1520.98 30.0415 1523.33 34.0924 M1497.93 49.9314 Q1497.93 58.1548 1501.3 62.8538 Q1504.7 67.5124 1510.61 67.5124 Q1516.53 67.5124 1519.93 62.8538 Q1523.33 58.1548 1523.33 49.9314 Q1523.33 41.7081 1519.93 37.0496 Q1516.53 32.3505 1510.61 32.3505 Q1504.7 32.3505 1501.3 37.0496 Q1497.93 41.7081 1497.93 49.9314 Z" fill="#000000" fill-rule="nonzero" fill-opacity="1" /><path clip-path="url(#clip660)" d="M1563.72 32.4315 Q1557.72 32.4315 1554.24 37.1306 Q1550.76 41.7891 1550.76 49.9314 Q1550.76 58.0738 1554.2 62.7728 Q1557.68 67.4314 1563.72 67.4314 Q1569.67 67.4314 1573.16 62.7323 Q1576.64 58.0333 1576.64 49.9314 Q1576.64 41.8701 1573.16 37.1711 Q1569.67 32.4315 1563.72 32.4315 M1563.72 26.1121 Q1573.44 26.1121 1578.99 32.4315 Q1584.54 38.7509 1584.54 49.9314 Q1584.54 61.0714 1578.99 67.4314 Q1573.44 73.7508 1563.72 73.7508 Q1553.96 73.7508 1548.41 67.4314 Q1542.9 61.0714 1542.9 49.9314 Q1542.9 38.7509 1548.41 32.4315 Q1553.96 26.1121 1563.72 26.1121 Z" fill="#000000" fill-rule="nonzero" fill-opacity="1" /><path clip-path="url(#clip660)" d="M1592.56 27.2059 L1600.02 27.2059 L1609.33 62.6108 L1618.61 27.2059 L1627.4 27.2059 L1636.72 62.6108 L1645.99 27.2059 L1653.45 27.2059 L1641.58 72.576 L1632.79 72.576 L1623.02 35.3887 L1613.22 72.576 L1604.43 72.576 L1592.56 27.2059 Z" fill="#000000" fill-rule="nonzero" fill-opacity="1" /><path clip-path="url(#clip660)" d="M1702.46 45.1919 L1702.46 72.576 L1695.01 72.576 L1695.01 45.4349 Q1695.01 38.994 1692.5 35.7938 Q1689.99 32.5936 1684.96 32.5936 Q1678.93 32.5936 1675.44 36.4419 Q1671.96 40.2903 1671.96 46.9338 L1671.96 72.576 L1664.47 72.576 L1664.47 27.2059 L1671.96 27.2059 L1671.96 34.2544 Q1674.63 30.163 1678.24 28.1376 Q1681.88 26.1121 1686.62 26.1121 Q1694.44 26.1121 1698.45 30.9732 Q1702.46 35.7938 1702.46 45.1919 Z" fill="#000000" fill-rule="nonzero" fill-opacity="1" /><path clip-path="url(#clip660)" d="M1764.32 49.7694 Q1755.29 49.7694 1751.8 51.8354 Q1748.32 53.9013 1748.32 58.8839 Q1748.32 62.8538 1750.91 65.2034 Q1753.54 67.5124 1758.04 67.5124 Q1764.24 67.5124 1767.97 63.1374 Q1771.73 58.7219 1771.73 51.4303 L1771.73 49.7694 L1764.32 49.7694 M1779.19 46.6907 L1779.19 72.576 L1771.73 72.576 L1771.73 65.6895 Q1769.18 69.8214 1765.37 71.8063 Q1761.57 73.7508 1756.06 73.7508 Q1749.09 73.7508 1744.96 69.8619 Q1740.87 65.9325 1740.87 59.3701 Q1740.87 51.7138 1745.97 47.825 Q1751.11 43.9361 1761.28 43.9361 L1771.73 43.9361 L1771.73 43.2069 Q1771.73 38.0623 1768.33 35.2672 Q1764.97 32.4315 1758.85 32.4315 Q1754.96 32.4315 1751.28 33.3632 Q1747.59 34.295 1744.19 36.1584 L1744.19 29.2718 Q1748.28 27.692 1752.13 26.9223 Q1755.98 26.1121 1759.62 26.1121 Q1769.46 26.1121 1774.33 31.2163 Q1779.19 36.3204 1779.19 46.6907 Z" fill="#000000" fill-rule="nonzero" fill-opacity="1" /><path clip-path="url(#clip660)" d="M1832.25 45.1919 L1832.25 72.576 L1824.8 72.576 L1824.8 45.4349 Q1824.8 38.994 1822.29 35.7938 Q1819.78 32.5936 1814.75 32.5936 Q1808.72 32.5936 1805.23 36.4419 Q1801.75 40.2903 1801.75 46.9338 L1801.75 72.576 L1794.26 72.576 L1794.26 27.2059 L1801.75 27.2059 L1801.75 34.2544 Q1804.42 30.163 1808.03 28.1376 Q1811.68 26.1121 1816.41 26.1121 Q1824.23 26.1121 1828.24 30.9732 Q1832.25 35.7938 1832.25 45.1919 Z" fill="#000000" fill-rule="nonzero" fill-opacity="1" /><path clip-path="url(#clip660)" d="M1876.98 34.0924 L1876.98 9.54393 L1884.43 9.54393 L1884.43 72.576 L1876.98 72.576 L1876.98 65.7705 Q1874.63 69.8214 1871.02 71.8063 Q1867.46 73.7508 1862.43 73.7508 Q1854.21 73.7508 1849.02 67.1883 Q1843.88 60.6258 1843.88 49.9314 Q1843.88 39.2371 1849.02 32.6746 Q1854.21 26.1121 1862.43 26.1121 Q1867.46 26.1121 1871.02 28.0971 Q1874.63 30.0415 1876.98 34.0924 M1851.58 49.9314 Q1851.58 58.1548 1854.94 62.8538 Q1858.34 67.5124 1864.26 67.5124 Q1870.17 67.5124 1873.57 62.8538 Q1876.98 58.1548 1876.98 49.9314 Q1876.98 41.7081 1873.57 37.0496 Q1870.17 32.3505 1864.26 32.3505 Q1858.34 32.3505 1854.94 37.0496 Q1851.58 41.7081 1851.58 49.9314 Z" fill="#000000" fill-rule="nonzero" fill-opacity="1" /><path clip-path="url(#clip660)" d="M1920.81 27.2059 L1928.71 27.2059 L1942.88 65.2844 L1957.06 27.2059 L1964.96 27.2059 L1947.95 72.576 L1937.82 72.576 L1920.81 27.2059 Z" fill="#000000" fill-rule="nonzero" fill-opacity="1" /><path clip-path="url(#clip660)" d="M1995.87 49.7694 Q1986.84 49.7694 1983.35 51.8354 Q1979.87 53.9013 1979.87 58.8839 Q1979.87 62.8538 1982.46 65.2034 Q1985.09 67.5124 1989.59 67.5124 Q1995.79 67.5124 1999.52 63.1374 Q2003.28 58.7219 2003.28 51.4303 L2003.28 49.7694 L1995.87 49.7694 M2010.74 46.6907 L2010.74 72.576 L2003.28 72.576 L2003.28 65.6895 Q2000.73 69.8214 1996.92 71.8063 Q1993.12 73.7508 1987.61 73.7508 Q1980.64 73.7508 1976.51 69.8619 Q1972.42 65.9325 1972.42 59.3701 Q1972.42 51.7138 1977.52 47.825 Q1982.66 43.9361 1992.83 43.9361 L2003.28 43.9361 L2003.28 43.2069 Q2003.28 38.0623 1999.88 35.2672 Q1996.52 32.4315 1990.4 32.4315 Q1986.51 32.4315 1982.83 33.3632 Q1979.14 34.295 1975.74 36.1584 L1975.74 29.2718 Q1979.83 27.692 1983.68 26.9223 Q1987.53 26.1121 1991.17 26.1121 Q2001.01 26.1121 2005.88 31.2163 Q2010.74 36.3204 2010.74 46.6907 Z" fill="#000000" fill-rule="nonzero" fill-opacity="1" /><path clip-path="url(#clip660)" d="M2058.74 28.9478 L2058.74 35.9153 Q2055.58 34.1734 2052.38 33.3227 Q2049.22 32.4315 2045.98 32.4315 Q2038.73 32.4315 2034.72 37.0496 Q2030.71 41.6271 2030.71 49.9314 Q2030.71 58.2358 2034.72 62.8538 Q2038.73 67.4314 2045.98 67.4314 Q2049.22 67.4314 2052.38 66.5807 Q2055.58 65.6895 2058.74 63.9476 L2058.74 70.8341 Q2055.62 72.2924 2052.26 73.0216 Q2048.94 73.7508 2045.17 73.7508 Q2034.92 73.7508 2028.88 67.3098 Q2022.85 60.8689 2022.85 49.9314 Q2022.85 38.832 2028.93 32.472 Q2035.04 26.1121 2045.66 26.1121 Q2049.1 26.1121 2052.38 26.8413 Q2055.66 27.5299 2058.74 28.9478 Z" fill="#000000" fill-rule="nonzero" fill-opacity="1" /><path clip-path="url(#clip660)" d="M2104.35 28.9478 L2104.35 35.9153 Q2101.19 34.1734 2097.99 33.3227 Q2094.83 32.4315 2091.59 32.4315 Q2084.34 32.4315 2080.33 37.0496 Q2076.32 41.6271 2076.32 49.9314 Q2076.32 58.2358 2080.33 62.8538 Q2084.34 67.4314 2091.59 67.4314 Q2094.83 67.4314 2097.99 66.5807 Q2101.19 65.6895 2104.35 63.9476 L2104.35 70.8341 Q2101.23 72.2924 2097.87 73.0216 Q2094.55 73.7508 2090.78 73.7508 Q2080.53 73.7508 2074.5 67.3098 Q2068.46 60.8689 2068.46 49.9314 Q2068.46 38.832 2074.54 32.472 Q2080.66 26.1121 2091.27 26.1121 Q2094.71 26.1121 2097.99 26.8413 Q2101.27 27.5299 2104.35 28.9478 Z" fill="#000000" fill-rule="nonzero" fill-opacity="1" /><path clip-path="url(#clip660)" d="M2117.32 27.2059 L2124.77 27.2059 L2124.77 72.576 L2117.32 72.576 L2117.32 27.2059 M2117.32 9.54393 L2124.77 9.54393 L2124.77 18.9825 L2117.32 18.9825 L2117.32 9.54393 Z" fill="#000000" fill-rule="nonzero" fill-opacity="1" /><path clip-path="url(#clip660)" d="M2178.08 45.1919 L2178.08 72.576 L2170.63 72.576 L2170.63 45.4349 Q2170.63 38.994 2168.11 35.7938 Q2165.6 32.5936 2160.58 32.5936 Q2154.54 32.5936 2151.06 36.4419 Q2147.58 40.2903 2147.58 46.9338 L2147.58 72.576 L2140.08 72.576 L2140.08 27.2059 L2147.58 27.2059 L2147.58 34.2544 Q2150.25 30.163 2153.86 28.1376 Q2157.5 26.1121 2162.24 26.1121 Q2170.06 26.1121 2174.07 30.9732 Q2178.08 35.7938 2178.08 45.1919 Z" fill="#000000" fill-rule="nonzero" fill-opacity="1" /><path clip-path="url(#clip660)" d="M2213.57 49.7694 Q2204.53 49.7694 2201.05 51.8354 Q2197.56 53.9013 2197.56 58.8839 Q2197.56 62.8538 2200.16 65.2034 Q2202.79 67.5124 2207.29 67.5124 Q2213.48 67.5124 2217.21 63.1374 Q2220.98 58.7219 2220.98 51.4303 L2220.98 49.7694 L2213.57 49.7694 M2228.43 46.6907 L2228.43 72.576 L2220.98 72.576 L2220.98 65.6895 Q2218.43 69.8214 2214.62 71.8063 Q2210.81 73.7508 2205.3 73.7508 Q2198.33 73.7508 2194.2 69.8619 Q2190.11 65.9325 2190.11 59.3701 Q2190.11 51.7138 2195.21 47.825 Q2200.36 43.9361 2210.53 43.9361 L2220.98 43.9361 L2220.98 43.2069 Q2220.98 38.0623 2217.58 35.2672 Q2214.21 32.4315 2208.1 32.4315 Q2204.21 32.4315 2200.52 33.3632 Q2196.84 34.295 2193.43 36.1584 L2193.43 29.2718 Q2197.52 27.692 2201.37 26.9223 Q2205.22 26.1121 2208.87 26.1121 Q2218.71 26.1121 2223.57 31.2163 Q2228.43 36.3204 2228.43 46.6907 Z" fill="#000000" fill-rule="nonzero" fill-opacity="1" /><path clip-path="url(#clip660)" d="M2251.16 14.324 L2251.16 27.2059 L2266.51 27.2059 L2266.51 32.9987 L2251.16 32.9987 L2251.16 57.6282 Q2251.16 63.1779 2252.66 64.7578 Q2254.2 66.3376 2258.85 66.3376 L2266.51 66.3376 L2266.51 72.576 L2258.85 72.576 Q2250.23 72.576 2246.95 69.3758 Q2243.66 66.1351 2243.66 57.6282 L2243.66 32.9987 L2238.2 32.9987 L2238.2 27.2059 L2243.66 27.2059 L2243.66 14.324 L2251.16 14.324 Z" fill="#000000" fill-rule="nonzero" fill-opacity="1" /><path clip-path="url(#clip660)" d="M2276.31 27.2059 L2283.77 27.2059 L2283.77 72.576 L2276.31 72.576 L2276.31 27.2059 M2276.31 9.54393 L2283.77 9.54393 L2283.77 18.9825 L2276.31 18.9825 L2276.31 9.54393 Z" fill="#000000" fill-rule="nonzero" fill-opacity="1" /><path clip-path="url(#clip660)" d="M2316.94 32.4315 Q2310.95 32.4315 2307.47 37.1306 Q2303.98 41.7891 2303.98 49.9314 Q2303.98 58.0738 2307.43 62.7728 Q2310.91 67.4314 2316.94 67.4314 Q2322.9 67.4314 2326.38 62.7323 Q2329.87 58.0333 2329.87 49.9314 Q2329.87 41.8701 2326.38 37.1711 Q2322.9 32.4315 2316.94 32.4315 M2316.94 26.1121 Q2326.67 26.1121 2332.22 32.4315 Q2337.77 38.7509 2337.77 49.9314 Q2337.77 61.0714 2332.22 67.4314 Q2326.67 73.7508 2316.94 73.7508 Q2307.18 73.7508 2301.63 67.4314 Q2296.12 61.0714 2296.12 49.9314 Q2296.12 38.7509 2301.63 32.4315 Q2307.18 26.1121 2316.94 26.1121 Z" fill="#000000" fill-rule="nonzero" fill-opacity="1" /><path clip-path="url(#clip660)" d="M2387.84 45.1919 L2387.84 72.576 L2380.38 72.576 L2380.38 45.4349 Q2380.38 38.994 2377.87 35.7938 Q2375.36 32.5936 2370.34 32.5936 Q2364.3 32.5936 2360.82 36.4419 Q2357.33 40.2903 2357.33 46.9338 L2357.33 72.576 L2349.84 72.576 L2349.84 27.2059 L2357.33 27.2059 L2357.33 34.2544 Q2360.01 30.163 2363.61 28.1376 Q2367.26 26.1121 2372 26.1121 Q2379.81 26.1121 2383.83 30.9732 Q2387.84 35.7938 2387.84 45.1919 Z" fill="#000000" fill-rule="nonzero" fill-opacity="1" /><polyline clip-path="url(#clip661)" style="stroke:#009af9; stroke-linecap:round; stroke-linejoin:round; stroke-width:8; stroke-opacity:1; fill:none" points="335.956,173.254 341.55,174.012 347.144,174.788 352.738,174.788 358.332,176.396 363.926,177.23 369.521,178.084 375.115,178.958 380.709,179.853 386.303,180.77 391.897,181.709 397.492,182.67 403.086,183.654 408.68,184.661 414.274,184.661 419.868,185.693 425.462,186.749 431.057,187.83 436.651,188.936 442.245,190.069 447.839,191.228 453.433,192.414 459.027,193.628 464.622,194.87 470.216,196.141 475.81,197.442 481.404,198.773 486.998,200.134 492.593,201.527 498.187,202.952 503.781,204.409 509.375,205.9 514.969,207.424 520.563,208.984 526.158,210.578 531.752,212.208 537.346,213.874 542.94,215.578 548.534,217.32 554.128,219.1 559.723,220.92 565.317,222.78 570.911,224.68 576.505,226.622 582.099,230.634 587.694,232.704 593.288,234.82 598.882,236.98 604.476,239.186 610.07,241.439 615.664,243.739 621.259,244.913 626.853,246.085 632.447,247.255 638.041,248.423 643.635,249.589 649.229,250.752 654.824,251.913 660.418,253.071 666.012,254.227 671.606,255.381 677.2,256.532 682.794,257.681 688.389,258.827 693.983,259.972 699.577,261.113 705.171,262.252 710.765,263.389 716.36,264.523 721.954,265.655 727.548,266.784 733.142,267.91 738.736,269.034 744.33,270.156 749.925,271.275 755.519,272.391 761.113,273.504 766.707,274.616 772.301,275.724 777.895,276.83 783.49,277.933 789.084,279.033 794.678,280.131 800.272,281.226 805.866,282.318 811.461,283.408 817.055,284.495 822.649,285.579 828.243,286.66 833.837,287.739 839.431,288.815 845.026,289.888 850.62,290.958 856.214,292.026 861.808,293.091 867.402,294.152 872.996,295.212 878.591,296.268 884.185,297.321 889.779,298.372 895.373,299.419 900.967,300.464 906.562,301.506 912.156,302.545 917.75,303.581 923.344,304.614 928.938,305.644 934.532,306.672 940.127,307.696 945.721,308.718 951.315,309.736 956.909,310.752 962.503,311.765 968.097,312.774 973.692,313.781 979.286,314.785 984.88,315.785 990.474,316.783 996.068,317.778 1001.66,318.77 1007.26,319.758 1012.85,320.744 1018.45,321.727 1024.04,322.707 1029.63,323.683 1035.23,324.657 1040.82,325.628 1046.42,326.595 1052.01,327.56 1057.6,328.521 1063.2,329.48 1068.79,330.435 1074.39,331.387 1079.98,332.337 1085.58,333.283 1091.17,334.226 1096.76,335.166 1102.36,336.103 1107.95,337.037 1113.55,337.968 1119.14,338.896 1124.73,339.82 1130.33,340.742 1135.92,341.661 1141.52,342.576 1147.11,343.488 1152.71,344.398 1158.3,345.304 1163.89,346.207 1169.49,347.107 1175.08,348.004 1175.08,424.539 1180.68,425.382 1186.27,426.221 1191.86,427.055 1197.46,427.886 1203.05,428.713 1208.65,429.536 1214.24,430.355 1219.84,431.17 1225.43,431.982 1231.02,432.789 1236.62,433.593 1242.21,434.392 1247.81,435.188 1253.4,435.188 1258.99,435.98 1264.59,436.768 1270.18,437.552 1275.78,438.332 1281.37,439.109 1286.97,439.882 1292.56,440.651 1298.15,441.416 1303.75,442.177 1309.34,442.935 1314.94,443.689 1320.53,444.439 1326.12,445.186 1331.72,445.929 1337.31,446.668 1342.91,447.403 1348.5,448.135 1354.1,448.863 1359.69,449.587 1365.28,450.308 1370.88,451.025 1376.47,451.738 1382.07,452.448 1387.66,453.155 1393.25,453.857 1398.85,454.557 1404.44,455.252 1410.04,455.944 1415.63,456.633 1421.23,457.318 1426.82,457.999 1432.41,458.677 1438.01,459.352 1443.6,460.023 1449.2,460.69 1454.79,461.354 1460.38,462.015 1465.98,462.672 1471.57,463.326 1477.17,463.976 1482.76,464.623 1488.36,465.267 1493.95,465.907 1499.54,466.544 1505.14,467.178 1510.73,467.808 1516.33,468.435 1521.92,469.059 1527.51,469.679 1533.11,470.296 1538.7,470.91 1544.3,471.521 1549.89,472.128 1555.49,472.732 1561.08,473.333 1566.67,473.931 1572.27,474.525 1577.86,475.116 1583.46,475.705 1589.05,476.29 1594.65,476.871 1600.24,477.45 1605.83,478.026 1611.43,478.598 1617.02,479.168 1622.62,479.734 1628.21,480.298 1633.8,480.858 1639.4,481.415 1644.99,481.969 1650.59,482.52 1656.18,483.069 1661.78,483.614 1667.37,484.156 1672.96,484.695 1678.56,485.232 1684.15,485.765 1689.75,486.296 1695.34,486.823 1700.93,487.348 1706.53,487.87 1712.12,488.389 1717.72,488.905 1723.31,489.418 1728.91,489.928 1734.5,490.94 1740.09,491.944 1745.69,491.944 1751.28,492.961 1756.88,493.992 1762.47,495.037 1768.06,496.096 1773.66,497.169 1779.25,498.257 1784.85,499.359 1790.44,500.475 1796.04,501.606 1801.63,502.752 1807.22,503.913 1812.82,505.089 1818.41,506.281 1824.01,507.487 1829.6,508.71 1835.19,509.948 1840.79,511.201 1846.38,512.471 1851.98,513.757 1857.57,515.059 1863.17,516.377 1868.76,517.712 1874.35,519.063 1879.95,520.431 1885.54,521.816 1891.14,523.217 1896.73,524.636 1902.32,526.072 1907.92,527.525 1913.51,528.996 1919.11,530.484 1924.7,531.99 1930.3,533.514 1935.89,535.056 1941.48,536.615 1947.08,538.193 1952.67,539.788 1958.27,541.402 1963.86,543.035 1969.45,544.686 1975.05,546.355 1980.64,548.043 1986.24,549.75 1991.83,551.475 1997.43,553.22 2003.02,554.983 2008.61,556.765 2014.21,558.567 2019.8,560.387 2025.4,562.227 2030.99,564.086 2036.58,565.965 2042.18,567.863 2047.77,569.78 2053.37,571.717 2058.96,573.673 2064.56,575.648 2070.15,577.644 2075.74,579.658 2081.34,581.693 2086.93,583.747 2092.53,585.82 2098.12,587.914 2103.72,590.026 2109.31,592.159 2114.9,594.311 2120.5,596.483 2126.09,598.674 2131.69,600.884 2137.28,603.115 2142.87,605.364 2148.47,607.633 2154.06,609.922 2159.66,612.229 2165.25,614.556 2170.85,616.902 2176.44,619.267 2182.03,621.652 2187.63,624.055 2193.22,626.477 2198.82,628.917 2204.41,631.377 2210,633.855 2215.6,636.351 2221.19,638.865 2226.79,641.398 2232.38,643.949 2237.98,646.517 2243.57,649.104 2249.16,651.707 2254.76,654.329 2260.35,656.967 2265.95,659.623 2271.54,662.295 2277.13,664.984 2282.73,667.69 2288.32,670.412 2293.92,673.15 2299.51,675.904 2305.11,678.673 2310.7,681.458 2316.29,684.259 2321.89,687.074 2327.48,689.904 2333.08,692.748 2338.67,695.607 2344.26,698.48 2349.86,701.366 2355.45,704.266 2361.05,707.179 2366.64,710.105 2372.24,713.043 2377.83,715.994 2383.42,718.957 2389.02,721.931 2394.61,724.917 2400.21,727.914 2405.8,730.922 2411.39,733.941 2416.99,736.969 2422.58,740.007 2428.18,743.055 2433.77,746.112 2439.37,749.178 2444.96,752.252 2450.55,755.334 2456.15,758.425 2461.74,761.522 2467.34,764.627 2472.93,767.738 2478.52,770.856 2484.12,773.98 2489.71,777.109 2495.31,780.244 2500.9,783.384 2506.5,786.528 2512.09,789.676 2517.68,792.828 2523.28,795.984 2528.87,799.143 2534.47,802.304 2540.06,805.468 2545.65,808.633 2551.25,811.801 2556.84,814.969 2562.44,818.138 2568.03,821.308 2573.63,827.648 "/>
<polyline clip-path="url(#clip661)" style="stroke:#e26f46; stroke-linecap:round; stroke-linejoin:round; stroke-width:8; stroke-opacity:1; fill:none" points="335.956,1673.35 341.55,1672.97 347.144,1672.58 352.738,1672.58 358.332,1671.77 363.926,1671.36 369.521,1670.93 375.115,1670.49 380.709,1670.05 386.303,1669.59 391.897,1669.12 397.492,1668.64 403.086,1668.15 408.68,1667.65 414.274,1667.65 419.868,1667.14 425.462,1666.61 431.057,1666.08 436.651,1665.53 442.245,1664.97 447.839,1664.39 453.433,1663.81 459.027,1663.21 464.622,1662.59 470.216,1661.96 475.81,1661.32 481.404,1660.67 486.998,1660 492.593,1659.31 498.187,1658.61 503.781,1657.89 509.375,1657.16 514.969,1656.42 520.563,1655.65 526.158,1654.87 531.752,1654.08 537.346,1653.27 542.94,1652.44 548.534,1651.59 554.128,1650.72 559.723,1649.84 565.317,1648.94 570.911,1648.02 576.505,1647.08 582.099,1645.14 587.694,1644.15 593.288,1643.13 598.882,1642.1 604.476,1641.04 610.07,1639.96 615.664,1638.86 621.259,1638.92 626.853,1638.97 632.447,1639.03 638.041,1639.09 643.635,1639.15 649.229,1639.21 654.824,1639.27 660.418,1639.33 666.012,1639.39 671.606,1639.45 677.2,1639.52 682.794,1639.58 688.389,1639.64 693.983,1639.71 699.577,1639.78 705.171,1639.85 710.765,1639.91 716.36,1639.98 721.954,1640.05 727.548,1640.12 733.142,1640.2 738.736,1640.27 744.33,1640.34 749.925,1640.42 755.519,1640.49 761.113,1640.57 766.707,1640.64 772.301,1640.72 777.895,1640.8 783.49,1640.88 789.084,1640.95 794.678,1641.03 800.272,1641.12 805.866,1641.2 811.461,1641.28 817.055,1641.36 822.649,1641.45 828.243,1641.53 833.837,1641.61 839.431,1641.7 845.026,1641.79 850.62,1641.87 856.214,1641.96 861.808,1642.05 867.402,1642.14 872.996,1642.23 878.591,1642.32 884.185,1642.41 889.779,1642.5 895.373,1642.59 900.967,1642.68 906.562,1642.78 912.156,1642.87 917.75,1642.96 923.344,1643.06 928.938,1643.16 934.532,1643.25 940.127,1643.35 945.721,1643.45 951.315,1643.54 956.909,1643.64 962.503,1643.74 968.097,1643.84 973.692,1643.94 979.286,1644.04 984.88,1644.14 990.474,1644.24 996.068,1644.34 1001.66,1644.45 1007.26,1644.55 1012.85,1644.65 1018.45,1644.76 1024.04,1644.86 1029.63,1644.96 1035.23,1645.07 1040.82,1645.17 1046.42,1645.28 1052.01,1645.39 1057.6,1645.49 1063.2,1645.6 1068.79,1645.71 1074.39,1645.82 1079.98,1645.92 1085.58,1646.03 1091.17,1646.14 1096.76,1646.25 1102.36,1646.36 1107.95,1646.47 1113.55,1646.58 1119.14,1646.69 1124.73,1646.81 1130.33,1646.92 1135.92,1647.03 1141.52,1647.14 1147.11,1647.25 1152.71,1647.37 1158.3,1647.48 1163.89,1647.59 1169.49,1647.71 1175.08,1647.82 1180.68,1647.99 1186.27,1648.15 1191.86,1648.32 1197.46,1648.48 1203.05,1648.65 1208.65,1648.81 1214.24,1648.98 1219.84,1649.14 1225.43,1649.31 1231.02,1649.47 1236.62,1649.63 1242.21,1649.8 1247.81,1649.96 1253.4,1649.96 1258.99,1650.13 1264.59,1650.29 1270.18,1650.45 1275.78,1650.61 1281.37,1650.78 1286.97,1650.94 1292.56,1651.1 1298.15,1651.26 1303.75,1651.43 1309.34,1651.59 1314.94,1651.75 1320.53,1651.91 1326.12,1652.07 1331.72,1652.23 1337.31,1652.39 1342.91,1652.55 1348.5,1652.71 1354.1,1652.87 1359.69,1653.03 1365.28,1653.19 1370.88,1653.35 1376.47,1653.5 1382.07,1653.66 1387.66,1653.82 1393.25,1653.98 1398.85,1654.13 1404.44,1654.29 1410.04,1654.45 1415.63,1654.6 1421.23,1654.76 1426.82,1654.92 1432.41,1655.07 1438.01,1655.22 1443.6,1655.38 1449.2,1655.53 1454.79,1655.69 1460.38,1655.84 1465.98,1655.99 1471.57,1656.15 1477.17,1656.3 1482.76,1656.45 1488.36,1656.6 1493.95,1656.75 1499.54,1656.9 1505.14,1657.05 1510.73,1657.2 1516.33,1657.35 1521.92,1657.5 1527.51,1657.65 1533.11,1657.8 1538.7,1657.95 1544.3,1658.1 1549.89,1658.24 1555.49,1658.39 1561.08,1658.54 1566.67,1658.68 1572.27,1658.83 1577.86,1658.97 1583.46,1659.12 1589.05,1659.26 1594.65,1659.4 1600.24,1659.55 1605.83,1659.69 1611.43,1659.83 1617.02,1659.98 1622.62,1660.12 1628.21,1660.26 1633.8,1660.4 1639.4,1660.54 1644.99,1660.68 1650.59,1660.82 1656.18,1660.96 1661.78,1661.1 1667.37,1661.24 1672.96,1661.37 1678.56,1661.51 1684.15,1661.65 1689.75,1661.78 1695.34,1661.92 1700.93,1662.05 1706.53,1662.19 1712.12,1662.32 1717.72,1662.46 1723.31,1662.59 1728.91,1662.73 1734.5,1662.99 1740.09,1662.62 1745.69,1662.62 1751.28,1662.25 1756.88,1661.87 1762.47,1661.48 1768.06,1661.1 1773.66,1660.7 1779.25,1660.31 1784.85,1659.9 1790.44,1659.5 1796.04,1659.09 1801.63,1658.67 1807.22,1658.25 1812.82,1657.82 1818.41,1657.39 1824.01,1656.96 1829.6,1656.52 1835.19,1656.07 1840.79,1655.63 1846.38,1655.17 1851.98,1654.71 1857.57,1654.25 1863.17,1653.78 1868.76,1653.31 1874.35,1652.83 1879.95,1652.34 1885.54,1651.86 1891.14,1651.36 1896.73,1650.86 1902.32,1650.36 1907.92,1649.85 1913.51,1649.34 1919.11,1648.82 1924.7,1648.3 1930.3,1647.77 1935.89,1647.24 1941.48,1646.7 1947.08,1646.16 1952.67,1645.62 1958.27,1645.06 1963.86,1644.51 1969.45,1643.95 1975.05,1643.38 1980.64,1642.81 1986.24,1642.24 1991.83,1641.66 1997.43,1641.07 2003.02,1640.48 2008.61,1639.89 2014.21,1639.29 2019.8,1638.69 2025.4,1638.09 2030.99,1637.48 2036.58,1636.86 2042.18,1636.24 2047.77,1635.62 2053.37,1634.99 2058.96,1634.36 2064.56,1633.73 2070.15,1633.09 2075.74,1632.44 2081.34,1631.8 2086.93,1631.15 2092.53,1630.49 2098.12,1629.84 2103.72,1629.18 2109.31,1628.51 2114.9,1627.84 2120.5,1627.17 2126.09,1626.5 2131.69,1625.82 2137.28,1625.15 2142.87,1624.46 2148.47,1623.78 2154.06,1623.09 2159.66,1622.4 2165.25,1621.71 2170.85,1621.02 2176.44,1620.32 2182.03,1619.63 2187.63,1618.93 2193.22,1618.23 2198.82,1617.53 2204.41,1616.82 2210,1616.12 2215.6,1615.41 2221.19,1614.71 2226.79,1614 2232.38,1613.29 2237.98,1612.59 2243.57,1611.88 2249.16,1611.17 2254.76,1610.46 2260.35,1609.75 2265.95,1609.05 2271.54,1608.34 2277.13,1607.63 2282.73,1606.93 2288.32,1606.22 2293.92,1605.52 2299.51,1604.82 2305.11,1604.12 2310.7,1603.42 2316.29,1602.73 2321.89,1602.03 2327.48,1601.34 2333.08,1600.65 2338.67,1599.97 2344.26,1599.28 2349.86,1598.6 2355.45,1597.93 2361.05,1597.25 2366.64,1596.59 2372.24,1595.92 2377.83,1595.26 2383.42,1594.6 2389.02,1593.95 2394.61,1593.3 2400.21,1592.66 2405.8,1592.02 2411.39,1591.39 2416.99,1590.76 2422.58,1590.14 2428.18,1589.53 2433.77,1588.92 2439.37,1588.31 2444.96,1587.72 2450.55,1587.13 2456.15,1586.54 2461.74,1585.97 2467.34,1585.4 2472.93,1584.83 2478.52,1584.28 2484.12,1583.73 2489.71,1583.19 2495.31,1582.66 2500.9,1582.14 2506.5,1581.63 2512.09,1581.12 2517.68,1580.62 2523.28,1580.14 2528.87,1579.66 2534.47,1579.19 2540.06,1578.72 2545.65,1578.27 2551.25,1577.83 2556.84,1577.4 2562.44,1576.98 2568.03,1576.56 2573.63,1575.77 "/>
<polyline clip-path="url(#clip661)" style="stroke:#3da44d; stroke-linecap:round; stroke-linejoin:round; stroke-width:8; stroke-opacity:1; fill:none" points="335.956,1688.65 341.55,1688.28 347.144,1687.89 352.738,1687.89 358.332,1687.09 363.926,1686.67 369.521,1686.24 375.115,1685.8 380.709,1685.36 386.303,1684.9 391.897,1684.43 397.492,1683.94 403.086,1683.45 408.68,1682.94 414.274,1682.94 419.868,1682.43 425.462,1681.89 431.057,1681.35 436.651,1680.79 442.245,1680.22 447.839,1679.64 453.433,1679.04 459.027,1678.42 464.622,1677.8 470.216,1677.15 475.81,1676.49 481.404,1675.82 486.998,1675.13 492.593,1674.42 498.187,1673.69 503.781,1672.95 509.375,1672.19 514.969,1671.42 520.563,1670.62 526.158,1669.81 531.752,1668.97 537.346,1668.12 542.94,1667.24 548.534,1666.35 554.128,1665.43 559.723,1664.5 565.317,1663.54 570.911,1662.56 576.505,1661.56 582.099,1659.48 587.694,1658.4 593.288,1657.31 598.882,1656.18 604.476,1655.03 610.07,1653.86 615.664,1652.65 621.259,1651.42 626.853,1650.2 632.447,1648.97 638.041,1647.75 643.635,1646.52 649.229,1645.3 654.824,1644.08 660.418,1642.86 666.012,1641.64 671.606,1640.42 677.2,1639.21 682.794,1638 688.389,1636.78 693.983,1635.57 699.577,1634.37 705.171,1633.16 710.765,1631.95 716.36,1630.75 721.954,1629.55 727.548,1628.35 733.142,1627.15 738.736,1625.95 744.33,1624.76 749.925,1623.57 755.519,1622.38 761.113,1621.19 766.707,1620 772.301,1618.81 777.895,1617.63 783.49,1616.45 789.084,1615.27 794.678,1614.09 800.272,1612.92 805.866,1611.74 811.461,1610.57 817.055,1609.4 822.649,1608.23 828.243,1607.07 833.837,1605.9 839.431,1604.74 845.026,1603.58 850.62,1602.43 856.214,1601.27 861.808,1600.12 867.402,1598.97 872.996,1597.82 878.591,1596.67 884.185,1595.53 889.779,1594.39 895.373,1593.25 900.967,1592.11 906.562,1590.97 912.156,1589.84 917.75,1588.71 923.344,1587.58 928.938,1586.46 934.532,1585.33 940.127,1584.21 945.721,1583.09 951.315,1581.98 956.909,1580.86 962.503,1579.75 968.097,1578.64 973.692,1577.54 979.286,1576.43 984.88,1575.33 990.474,1574.23 996.068,1573.14 1001.66,1572.04 1007.26,1570.95 1012.85,1569.86 1018.45,1568.77 1024.04,1567.69 1029.63,1566.61 1035.23,1565.53 1040.82,1564.45 1046.42,1563.38 1052.01,1562.31 1057.6,1561.24 1063.2,1560.18 1068.79,1559.11 1074.39,1558.05 1079.98,1557 1085.58,1555.94 1091.17,1554.89 1096.76,1553.84 1102.36,1552.79 1107.95,1551.75 1113.55,1550.71 1119.14,1549.67 1124.73,1548.63 1130.33,1547.6 1135.92,1546.57 1141.52,1545.54 1147.11,1544.51 1152.71,1543.49 1158.3,1542.47 1163.89,1541.46 1169.49,1540.44 1175.08,1539.43 1175.08,1462.9 1180.68,1461.89 1186.27,1460.88 1191.86,1459.88 1197.46,1458.89 1203.05,1457.9 1208.65,1456.91 1214.24,1455.92 1219.84,1454.94 1225.43,1453.97 1231.02,1453 1236.62,1452.03 1242.21,1451.07 1247.81,1450.11 1253.4,1450.11 1258.99,1449.15 1264.59,1448.2 1270.18,1447.25 1275.78,1446.31 1281.37,1445.37 1286.97,1444.44 1292.56,1443.5 1298.15,1442.58 1303.75,1441.65 1309.34,1440.74 1314.94,1439.82 1320.53,1438.91 1326.12,1438 1331.72,1437.1 1337.31,1436.2 1342.91,1435.3 1348.5,1434.41 1354.1,1433.52 1359.69,1432.64 1365.28,1431.76 1370.88,1430.89 1376.47,1430.01 1382.07,1429.15 1387.66,1428.28 1393.25,1427.42 1398.85,1426.57 1404.44,1425.71 1410.04,1424.87 1415.63,1424.02 1421.23,1423.18 1426.82,1422.34 1432.41,1421.51 1438.01,1420.68 1443.6,1419.86 1449.2,1419.03 1454.79,1418.22 1460.38,1417.4 1465.98,1416.59 1471.57,1415.79 1477.17,1414.98 1482.76,1414.18 1488.36,1413.39 1493.95,1412.6 1499.54,1411.81 1505.14,1411.03 1510.73,1410.25 1516.33,1409.47 1521.92,1408.7 1527.51,1407.93 1533.11,1407.16 1538.7,1406.4 1544.3,1405.64 1549.89,1404.89 1555.49,1404.14 1561.08,1403.39 1566.67,1402.64 1572.27,1401.9 1577.86,1401.17 1583.46,1400.44 1589.05,1399.71 1594.65,1398.98 1600.24,1398.26 1605.83,1397.54 1611.43,1396.82 1617.02,1396.11 1622.62,1395.4 1628.21,1394.7 1633.8,1394 1639.4,1393.3 1644.99,1392.61 1650.59,1391.92 1656.18,1391.23 1661.78,1390.55 1667.37,1389.87 1672.96,1389.19 1678.56,1388.51 1684.15,1387.84 1689.75,1387.18 1695.34,1386.51 1700.93,1385.85 1706.53,1385.2 1712.12,1384.54 1717.72,1383.89 1723.31,1383.25 1728.91,1382.6 1734.5,1381.33 1740.09,1380.69 1745.69,1380.69 1751.28,1380.05 1756.88,1379.4 1762.47,1378.74 1768.06,1378.07 1773.66,1377.39 1779.25,1376.7 1784.85,1376 1790.44,1375.29 1796.04,1374.57 1801.63,1373.84 1807.22,1373.09 1812.82,1372.34 1818.41,1371.58 1824.01,1370.81 1829.6,1370.03 1835.19,1369.24 1840.79,1368.43 1846.38,1367.62 1851.98,1366.79 1857.57,1365.95 1863.17,1365.1 1868.76,1364.24 1874.35,1363.37 1879.95,1362.48 1885.54,1361.59 1891.14,1360.68 1896.73,1359.76 1902.32,1358.82 1907.92,1357.88 1913.51,1356.92 1919.11,1355.95 1924.7,1354.97 1930.3,1353.97 1935.89,1352.96 1941.48,1351.94 1947.08,1350.9 1952.67,1349.85 1958.27,1348.79 1963.86,1347.71 1969.45,1346.62 1975.05,1345.52 1980.64,1344.4 1986.24,1343.27 1991.83,1342.12 1997.43,1340.96 2003.02,1339.79 2008.61,1338.6 2014.21,1337.4 2019.8,1336.18 2025.4,1334.94 2030.99,1333.7 2036.58,1332.43 2042.18,1331.15 2047.77,1329.86 2053.37,1328.55 2058.96,1327.22 2064.56,1325.88 2070.15,1324.53 2075.74,1323.16 2081.34,1321.77 2086.93,1320.36 2092.53,1318.94 2098.12,1317.51 2103.72,1316.06 2109.31,1314.59 2114.9,1313.1 2120.5,1311.6 2126.09,1310.08 2131.69,1308.55 2137.28,1307 2142.87,1305.43 2148.47,1303.84 2154.06,1302.24 2159.66,1300.62 2165.25,1298.99 2170.85,1297.33 2176.44,1295.66 2182.03,1293.98 2187.63,1292.27 2193.22,1290.55 2198.82,1288.81 2204.41,1287.06 2210,1285.28 2215.6,1283.49 2221.19,1281.68 2226.79,1279.86 2232.38,1278.02 2237.98,1276.15 2243.57,1274.28 2249.16,1272.38 2254.76,1270.47 2260.35,1268.54 2265.95,1266.59 2271.54,1264.62 2277.13,1262.64 2282.73,1260.64 2288.32,1258.62 2293.92,1256.59 2299.51,1254.53 2305.11,1252.46 2310.7,1250.38 2316.29,1248.27 2321.89,1246.15 2327.48,1244.01 2333.08,1241.86 2338.67,1239.68 2344.26,1237.49 2349.86,1235.29 2355.45,1233.06 2361.05,1230.82 2366.64,1228.57 2372.24,1226.29 2377.83,1224 2383.42,1221.7 2389.02,1219.38 2394.61,1217.04 2400.21,1214.68 2405.8,1212.31 2411.39,1209.93 2416.99,1207.53 2422.58,1205.11 2428.18,1202.68 2433.77,1200.23 2439.37,1197.77 2444.96,1195.29 2450.55,1192.8 2456.15,1190.29 2461.74,1187.77 2467.34,1185.23 2472.93,1182.68 2478.52,1180.12 2484.12,1177.54 2489.71,1174.95 2495.31,1172.35 2500.9,1169.73 2506.5,1167.1 2512.09,1164.46 2517.68,1161.81 2523.28,1159.14 2528.87,1156.46 2534.47,1153.77 2540.06,1151.06 2545.65,1148.35 2551.25,1145.62 2556.84,1142.89 2562.44,1140.14 2568.03,1137.38 2573.63,1131.84 "/>
<path clip-path="url(#clip660)" d="M2297.58 388.696 L2561.69 388.696 L2561.69 181.336 L2297.58 181.336  Z" fill="#ffffff" fill-rule="evenodd" fill-opacity="1"/>
<polyline clip-path="url(#clip660)" style="stroke:#000000; stroke-linecap:round; stroke-linejoin:round; stroke-width:4; stroke-opacity:1; fill:none" points="2297.58,388.696 2561.69,388.696 2561.69,181.336 2297.58,181.336 2297.58,388.696 "/>
<polyline clip-path="url(#clip660)" style="stroke:#009af9; stroke-linecap:round; stroke-linejoin:round; stroke-width:8; stroke-opacity:1; fill:none" points="2323.93,233.176 2482.06,233.176 "/>
<path clip-path="url(#clip660)" d="M2530.66 217.031 L2530.66 221.591 Q2528 220.318 2525.64 219.693 Q2523.28 219.068 2521.08 219.068 Q2517.26 219.068 2515.17 220.549 Q2513.11 222.031 2513.11 224.762 Q2513.11 227.054 2514.48 228.234 Q2515.87 229.392 2519.71 230.109 L2522.54 230.688 Q2527.77 231.683 2530.24 234.206 Q2532.74 236.706 2532.74 240.919 Q2532.74 245.942 2529.36 248.535 Q2526.01 251.128 2519.5 251.128 Q2517.05 251.128 2514.27 250.572 Q2511.52 250.016 2508.55 248.929 L2508.55 244.114 Q2511.4 245.711 2514.13 246.521 Q2516.86 247.331 2519.5 247.331 Q2523.51 247.331 2525.68 245.757 Q2527.86 244.183 2527.86 241.267 Q2527.86 238.72 2526.29 237.285 Q2524.73 235.85 2521.17 235.132 L2518.32 234.577 Q2513.09 233.535 2510.75 231.313 Q2508.42 229.091 2508.42 225.132 Q2508.42 220.549 2511.63 217.91 Q2514.87 215.271 2520.55 215.271 Q2522.98 215.271 2525.5 215.711 Q2528.02 216.151 2530.66 217.031 Z" fill="#000000" fill-rule="nonzero" fill-opacity="1" /><polyline clip-path="url(#clip660)" style="stroke:#e26f46; stroke-linecap:round; stroke-linejoin:round; stroke-width:8; stroke-opacity:1; fill:none" points="2323.93,285.016 2482.06,285.016 "/>
<path clip-path="url(#clip660)" d="M2508.42 267.736 L2513.09 267.736 L2513.09 302.296 L2508.42 302.296 L2508.42 267.736 Z" fill="#000000" fill-rule="nonzero" fill-opacity="1" /><polyline clip-path="url(#clip660)" style="stroke:#3da44d; stroke-linecap:round; stroke-linejoin:round; stroke-width:8; stroke-opacity:1; fill:none" points="2323.93,336.856 2482.06,336.856 "/>
<path clip-path="url(#clip660)" d="M2524.8 337.933 Q2526.31 338.442 2527.72 340.109 Q2529.16 341.775 2530.59 344.692 L2535.34 354.136 L2530.31 354.136 L2525.89 345.271 Q2524.18 341.798 2522.56 340.664 Q2520.96 339.53 2518.18 339.53 L2513.09 339.53 L2513.09 354.136 L2508.42 354.136 L2508.42 319.576 L2518.97 319.576 Q2524.9 319.576 2527.81 322.053 Q2530.73 324.53 2530.73 329.53 Q2530.73 332.794 2529.2 334.947 Q2527.7 337.099 2524.8 337.933 M2513.09 323.419 L2513.09 335.687 L2518.97 335.687 Q2522.35 335.687 2524.06 334.136 Q2525.8 332.562 2525.8 329.53 Q2525.8 326.498 2524.06 324.97 Q2522.35 323.419 2518.97 323.419 L2513.09 323.419 Z" fill="#000000" fill-rule="nonzero" fill-opacity="1" /></svg>
